<svg xmlns="http://www.w3.org/2000/svg" width="102.64" height="83" viewBox="0 0 102.64 83">
  <g id="logo_inner" transform="translate(-39 -64)">
    <g id="Group_1" data-name="Group 1">
      <g id="Group_4" data-name="Group 4" transform="translate(19)">
        <rect id="Rectangle_2" data-name="Rectangle 2" width="25" height="25" rx="4" transform="translate(20 64)" fill="#0179b5"/>
        <path id="Path_12" data-name="Path 12" d="M12.8-1.62a1.264,1.264,0,0,1,.24.7.937.937,0,0,1-.37.76,1.339,1.339,0,0,1-.87.3,1.31,1.31,0,0,1-.61-.15,1.312,1.312,0,0,1-.49-.45L8.04-4.5a2.591,2.591,0,0,0-.85-.9,2.322,2.322,0,0,0-1.17-.26H4.06v4.48a1.305,1.305,0,0,1-.34.95A1.223,1.223,0,0,1,2.8.12a1.257,1.257,0,0,1-.93-.35,1.284,1.284,0,0,1-.35-.95v-11.7a1.2,1.2,0,0,1,.33-.9,1.252,1.252,0,0,1,.91-.32h5a5.47,5.47,0,0,1,3.65,1.07,3.844,3.844,0,0,1,1.25,3.09,3.906,3.906,0,0,1-.93,2.69A4.4,4.4,0,0,1,9.1-5.9a2.522,2.522,0,0,1,1.02.5,4.4,4.4,0,0,1,.86,1ZM7.4-7.64a3.387,3.387,0,0,0,2.14-.55,2.045,2.045,0,0,0,.68-1.69,2.01,2.01,0,0,0-.68-1.69A3.483,3.483,0,0,0,7.4-12.1H4.04v4.46Z" transform="translate(26 83)" fill="#fff"/>
      </g>
      <path id="Path_11" data-name="Path 11" d="M2.8.12a1.238,1.238,0,0,1-.93-.36,1.291,1.291,0,0,1-.35-.94V-12.92a1.257,1.257,0,0,1,.35-.93,1.257,1.257,0,0,1,.93-.35,1.284,1.284,0,0,1,.95.35,1.257,1.257,0,0,1,.35.93V-1.18a1.291,1.291,0,0,1-.35.94A1.264,1.264,0,0,1,2.8.12ZM16-2.06q1.2,0,1.2,1.02Q17.2,0,16,0H7.48a1.122,1.122,0,0,1-.83-.31,1.07,1.07,0,0,1-.31-.79,1.542,1.542,0,0,1,.32-.92l7.16-10.02H7.56q-1.2,0-1.2-1.02,0-1.04,1.2-1.04h8.26a1.122,1.122,0,0,1,.83.31,1.045,1.045,0,0,1,.31.77,1.543,1.543,0,0,1-.34.92L9.46-2.06ZM20.46.12a1.238,1.238,0,0,1-.93-.36,1.291,1.291,0,0,1-.35-.94V-12.92a1.257,1.257,0,0,1,.35-.93,1.257,1.257,0,0,1,.93-.35,1.284,1.284,0,0,1,.95.35,1.257,1.257,0,0,1,.35.93V-1.18a1.291,1.291,0,0,1-.35.94A1.264,1.264,0,0,1,20.46.12ZM35.74-1.94a1.16,1.16,0,0,1,.4.86,1.112,1.112,0,0,1-.35.81,1.134,1.134,0,0,1-.83.35,1.28,1.28,0,0,1-.92-.42L27.38-6.58v5.4a1.291,1.291,0,0,1-.35.94,1.264,1.264,0,0,1-.95.36,1.238,1.238,0,0,1-.93-.36,1.291,1.291,0,0,1-.35-.94V-12.92a1.257,1.257,0,0,1,.35-.93,1.257,1.257,0,0,1,.93-.35,1.284,1.284,0,0,1,.95.35,1.257,1.257,0,0,1,.35.93v5.14l6.44-6.04a1.13,1.13,0,0,1,.82-.36,1.112,1.112,0,0,1,.81.35,1.112,1.112,0,0,1,.35.81,1.141,1.141,0,0,1-.4.84L30.02-7.26Zm8,2.12A6.966,6.966,0,0,1,40.17-.7a5.886,5.886,0,0,1-2.33-2.52,8.486,8.486,0,0,1-.82-3.84,8.51,8.51,0,0,1,.81-3.83,5.819,5.819,0,0,1,2.33-2.51,7.02,7.02,0,0,1,3.58-.88,6.966,6.966,0,0,1,3.57.88,5.836,5.836,0,0,1,2.32,2.51,8.51,8.51,0,0,1,.81,3.83,8.486,8.486,0,0,1-.82,3.84A5.886,5.886,0,0,1,47.29-.7,6.925,6.925,0,0,1,43.74.18Zm0-2.06a3.689,3.689,0,0,0,3.03-1.34,5.948,5.948,0,0,0,1.09-3.84,5.905,5.905,0,0,0-1.09-3.83,3.7,3.7,0,0,0-3.03-1.33,3.724,3.724,0,0,0-3.05,1.33A5.905,5.905,0,0,0,39.6-7.06a5.948,5.948,0,0,0,1.09,3.84A3.712,3.712,0,0,0,43.74-1.88Zm19.2-11.66A1.092,1.092,0,0,1,64-14.22a1.4,1.4,0,0,1,.9.32.985.985,0,0,1,.4.8,1.291,1.291,0,0,1-.12.5L59.64-.68a1.308,1.308,0,0,1-.55.59,1.575,1.575,0,0,1-.79.21,1.575,1.575,0,0,1-.79-.21,1.308,1.308,0,0,1-.55-.59L51.44-12.6a1.259,1.259,0,0,1-.12-.48,1,1,0,0,1,.41-.82,1.472,1.472,0,0,1,.93-.32,1.224,1.224,0,0,1,.63.17,1.127,1.127,0,0,1,.45.51l4.6,10.22ZM68.2,0a1.252,1.252,0,0,1-.91-.32,1.2,1.2,0,0,1-.33-.9V-12.88a1.2,1.2,0,0,1,.33-.9,1.252,1.252,0,0,1,.91-.32h7.22a1.392,1.392,0,0,1,.9.26.9.9,0,0,1,.32.74.952.952,0,0,1-.32.77,1.356,1.356,0,0,1-.9.27H69.48v3.88h5.54a1.392,1.392,0,0,1,.9.26.922.922,0,0,1,.32.76.9.9,0,0,1-.32.74,1.392,1.392,0,0,1-.9.26H69.48v4.12h5.94a1.356,1.356,0,0,1,.9.27.952.952,0,0,1,.32.77.9.9,0,0,1-.32.74,1.392,1.392,0,0,1-.9.26Zm4.12-15.28a.71.71,0,0,1-.32.08.617.617,0,0,1-.44-.17.523.523,0,0,1-.18-.39.634.634,0,0,1,.22-.44l1.82-1.88a1.16,1.16,0,0,1,.86-.4.942.942,0,0,1,.69.29.92.92,0,0,1,.29.67.853.853,0,0,1-.17.5,1.426,1.426,0,0,1-.51.42Z" transform="translate(65 83)"/>
    </g>
    <g id="Group_5" data-name="Group 5" transform="translate(0 29)">
      <g id="Group_4-2" data-name="Group 4" transform="translate(19)">
        <rect id="Rectangle_2-2" data-name="Rectangle 2" width="25" height="25" rx="4" transform="translate(20 64)" fill="#0179b5"/>
        <path id="Path_10" data-name="Path 10" d="M12.46-1.94a1.16,1.16,0,0,1,.4.86,1.112,1.112,0,0,1-.35.81,1.134,1.134,0,0,1-.83.35,1.28,1.28,0,0,1-.92-.42L4.1-6.58v5.4a1.291,1.291,0,0,1-.35.94A1.264,1.264,0,0,1,2.8.12a1.238,1.238,0,0,1-.93-.36,1.291,1.291,0,0,1-.35-.94V-12.92a1.257,1.257,0,0,1,.35-.93,1.257,1.257,0,0,1,.93-.35,1.284,1.284,0,0,1,.95.35,1.257,1.257,0,0,1,.35.93v5.14l6.44-6.04a1.13,1.13,0,0,1,.82-.36,1.112,1.112,0,0,1,.81.35,1.112,1.112,0,0,1,.35.81,1.141,1.141,0,0,1-.4.84L6.74-7.26Z" transform="translate(26 83)" fill="#fff"/>
      </g>
      <path id="Path_9" data-name="Path 9" d="M14.3-1.54a1.232,1.232,0,0,1,.12.52.994.994,0,0,1-.37.78,1.262,1.262,0,0,1-.85.32,1.136,1.136,0,0,1-.6-.17,1.134,1.134,0,0,1-.44-.53L10.96-3.3H3.92L2.72-.62a1.134,1.134,0,0,1-.44.53,1.172,1.172,0,0,1-.62.17A1.274,1.274,0,0,1,.82-.24a.984.984,0,0,1-.38-.78,1.232,1.232,0,0,1,.12-.52L6.08-13.4a1.29,1.29,0,0,1,.55-.61,1.575,1.575,0,0,1,.79-.21,1.575,1.575,0,0,1,.79.21,1.29,1.29,0,0,1,.55.61ZM10.08-5.3,7.44-11.24,4.8-5.3ZM7.74-15.28a.71.71,0,0,1-.32.08.617.617,0,0,1-.44-.17.523.523,0,0,1-.18-.39.634.634,0,0,1,.22-.44l1.82-1.88a1.16,1.16,0,0,1,.86-.4.942.942,0,0,1,.69.29.92.92,0,0,1,.29.67.853.853,0,0,1-.17.5,1.426,1.426,0,0,1-.51.42ZM22.22.18A7.034,7.034,0,0,1,18.65-.7,5.851,5.851,0,0,1,16.3-3.22a8.486,8.486,0,0,1-.82-3.84,8.423,8.423,0,0,1,.82-3.83,5.863,5.863,0,0,1,2.35-2.51,7.034,7.034,0,0,1,3.57-.88,7.732,7.732,0,0,1,2.48.39,6.444,6.444,0,0,1,2.06,1.13,1.147,1.147,0,0,1,.36.42,1.3,1.3,0,0,1,.1.54,1.147,1.147,0,0,1-.24.74.721.721,0,0,1-.58.3,1.479,1.479,0,0,1-.82-.28,5.931,5.931,0,0,0-1.6-.89,5.1,5.1,0,0,0-1.64-.25,3.844,3.844,0,0,0-3.15,1.3,5.89,5.89,0,0,0-1.07,3.82,5.926,5.926,0,0,0,1.07,3.84,3.843,3.843,0,0,0,3.15,1.3,4.707,4.707,0,0,0,1.59-.26,7.628,7.628,0,0,0,1.65-.88,2.8,2.8,0,0,1,.4-.2,1.12,1.12,0,0,1,.42-.08.721.721,0,0,1,.58.3,1.147,1.147,0,0,1,.24.74,1.319,1.319,0,0,1-.1.53,1.12,1.12,0,0,1-.36.43A6.444,6.444,0,0,1,24.7-.21,7.732,7.732,0,0,1,22.22.18ZM30.72,0a1.252,1.252,0,0,1-.91-.32,1.2,1.2,0,0,1-.33-.9V-12.88a1.2,1.2,0,0,1,.33-.9,1.252,1.252,0,0,1,.91-.32h7.22a1.392,1.392,0,0,1,.9.26.9.9,0,0,1,.32.74.952.952,0,0,1-.32.77,1.356,1.356,0,0,1-.9.27H32v3.88h5.54a1.392,1.392,0,0,1,.9.26.922.922,0,0,1,.32.76.9.9,0,0,1-.32.74,1.392,1.392,0,0,1-.9.26H32v4.12h5.94a1.356,1.356,0,0,1,.9.27.952.952,0,0,1,.32.77.9.9,0,0,1-.32.74,1.392,1.392,0,0,1-.9.26ZM51.94-14.2a1.165,1.165,0,0,1,.89.35,1.3,1.3,0,0,1,.33.93V-1.18a1.313,1.313,0,0,1-.34.94,1.156,1.156,0,0,1-.88.36,1.144,1.144,0,0,1-.98-.46l-7.3-9.5v8.66a1.362,1.362,0,0,1-.32.94,1.117,1.117,0,0,1-.88.36,1.117,1.117,0,0,1-.88-.36,1.362,1.362,0,0,1-.32-.94V-12.92a1.278,1.278,0,0,1,.34-.93,1.2,1.2,0,0,1,.9-.35,1.124,1.124,0,0,1,.96.46l7.28,9.46v-8.64a1.3,1.3,0,0,1,.33-.93A1.14,1.14,0,0,1,51.94-14.2ZM57.48.12a1.238,1.238,0,0,1-.93-.36,1.291,1.291,0,0,1-.35-.94V-12.92a1.257,1.257,0,0,1,.35-.93,1.257,1.257,0,0,1,.93-.35,1.284,1.284,0,0,1,.95.35,1.257,1.257,0,0,1,.35.93V-1.18a1.291,1.291,0,0,1-.35.94A1.264,1.264,0,0,1,57.48.12Zm.32-15.4a.71.71,0,0,1-.32.08.617.617,0,0,1-.44-.17.523.523,0,0,1-.18-.39.634.634,0,0,1,.22-.44l1.82-1.88a1.16,1.16,0,0,1,.86-.4.942.942,0,0,1,.69.29.92.92,0,0,1,.29.67.853.853,0,0,1-.17.5,1.426,1.426,0,0,1-.51.42Z" transform="translate(65 83)"/>
    </g>
    <g id="Group_6" data-name="Group 6" transform="translate(0 58)">
      <g id="Group_4-3" data-name="Group 4" transform="translate(19)">
        <rect id="Rectangle_2-3" data-name="Rectangle 2" width="25" height="25" rx="4" transform="translate(20 64)" fill="#0179b5"/>
        <path id="Path_8" data-name="Path 8" d="M14.04-14.2a1.2,1.2,0,0,1,.9.35,1.278,1.278,0,0,1,.34.93V-1.08a1.189,1.189,0,0,1-.32.88,1.136,1.136,0,0,1-.84.32A1.07,1.07,0,0,1,13.3-.2a1.236,1.236,0,0,1-.3-.88V-9.32L9.6-2.88a1.986,1.986,0,0,1-.52.65,1.069,1.069,0,0,1-.66.21,1.106,1.106,0,0,1-.66-.2,1.839,1.839,0,0,1-.52-.66L3.82-9.22v8.14a1.219,1.219,0,0,1-.31.87,1.085,1.085,0,0,1-.83.33A1.07,1.07,0,0,1,1.86-.2a1.236,1.236,0,0,1-.3-.88V-12.92a1.3,1.3,0,0,1,.33-.93,1.165,1.165,0,0,1,.89-.35A1.346,1.346,0,0,1,4-13.34L8.44-4.88l4.42-8.46A1.324,1.324,0,0,1,14.04-14.2Z" transform="translate(24 83)" fill="#fff"/>
      </g>
      <path id="Path_13" data-name="Path 13" d="M7.8.18A6.966,6.966,0,0,1,4.23-.7,5.886,5.886,0,0,1,1.9-3.22a8.486,8.486,0,0,1-.82-3.84,8.51,8.51,0,0,1,.81-3.83A5.819,5.819,0,0,1,4.22-13.4a7.02,7.02,0,0,1,3.58-.88,6.966,6.966,0,0,1,3.57.88,5.836,5.836,0,0,1,2.32,2.51,8.51,8.51,0,0,1,.81,3.83,8.486,8.486,0,0,1-.82,3.84A5.886,5.886,0,0,1,11.35-.7,6.925,6.925,0,0,1,7.8.18Zm0-2.06a3.689,3.689,0,0,0,3.03-1.34,5.948,5.948,0,0,0,1.09-3.84,5.905,5.905,0,0,0-1.09-3.83A3.7,3.7,0,0,0,7.8-12.22a3.724,3.724,0,0,0-3.05,1.33A5.905,5.905,0,0,0,3.66-7.06,5.948,5.948,0,0,0,4.75-3.22,3.712,3.712,0,0,0,7.8-1.88Zm20.58.26a1.264,1.264,0,0,1,.24.7.937.937,0,0,1-.37.76,1.339,1.339,0,0,1-.87.3,1.31,1.31,0,0,1-.61-.15,1.312,1.312,0,0,1-.49-.45L23.62-4.5a2.591,2.591,0,0,0-.85-.9,2.322,2.322,0,0,0-1.17-.26H19.64v4.48a1.305,1.305,0,0,1-.34.95,1.223,1.223,0,0,1-.92.35,1.257,1.257,0,0,1-.93-.35,1.284,1.284,0,0,1-.35-.95v-11.7a1.2,1.2,0,0,1,.33-.9,1.252,1.252,0,0,1,.91-.32h5a5.47,5.47,0,0,1,3.65,1.07,3.844,3.844,0,0,1,1.25,3.09,3.906,3.906,0,0,1-.93,2.69A4.4,4.4,0,0,1,24.68-5.9a2.522,2.522,0,0,1,1.02.5,4.4,4.4,0,0,1,.86,1Zm-5.4-6.02a3.387,3.387,0,0,0,2.14-.55,2.045,2.045,0,0,0,.68-1.69,2.01,2.01,0,0,0-.68-1.69,3.483,3.483,0,0,0-2.14-.53H19.62v4.46Zm20.64,6.1a1.232,1.232,0,0,1,.12.52.994.994,0,0,1-.37.78,1.262,1.262,0,0,1-.85.32,1.136,1.136,0,0,1-.6-.17,1.134,1.134,0,0,1-.44-.53L40.28-3.3H33.24L32.04-.62a1.134,1.134,0,0,1-.44.53,1.172,1.172,0,0,1-.62.17,1.274,1.274,0,0,1-.84-.32.984.984,0,0,1-.38-.78,1.232,1.232,0,0,1,.12-.52L35.4-13.4a1.29,1.29,0,0,1,.55-.61,1.575,1.575,0,0,1,.79-.21,1.575,1.575,0,0,1,.79.21,1.29,1.29,0,0,1,.55.61ZM39.4-5.3l-2.64-5.94L34.12-5.3Zm15.2-8.24a1.092,1.092,0,0,1,1.06-.68,1.4,1.4,0,0,1,.9.32.985.985,0,0,1,.4.8,1.291,1.291,0,0,1-.12.5L51.3-.68a1.308,1.308,0,0,1-.55.59,1.575,1.575,0,0,1-.79.21,1.575,1.575,0,0,1-.79-.21,1.308,1.308,0,0,1-.55-.59L43.1-12.6a1.259,1.259,0,0,1-.12-.48,1,1,0,0,1,.41-.82,1.472,1.472,0,0,1,.93-.32,1.224,1.224,0,0,1,.63.17,1.127,1.127,0,0,1,.45.51L50-3.32Zm15.46,12a1.232,1.232,0,0,1,.12.52.994.994,0,0,1-.37.78,1.262,1.262,0,0,1-.85.32,1.136,1.136,0,0,1-.6-.17,1.134,1.134,0,0,1-.44-.53L66.72-3.3H59.68L58.48-.62a1.134,1.134,0,0,1-.44.53,1.172,1.172,0,0,1-.62.17,1.274,1.274,0,0,1-.84-.32.984.984,0,0,1-.38-.78,1.232,1.232,0,0,1,.12-.52L61.84-13.4a1.29,1.29,0,0,1,.55-.61,1.575,1.575,0,0,1,.79-.21,1.575,1.575,0,0,1,.79.21,1.29,1.29,0,0,1,.55.61ZM65.84-5.3,63.2-11.24,60.56-5.3Z" transform="translate(65 83)"/>
    </g>
  </g>
</svg>
