<?xml version="1.0" standalone="no"?>
<!DOCTYPE svg PUBLIC "-//W3C//DTD SVG 20010904//EN"
 "http://www.w3.org/TR/2001/REC-SVG-20010904/DTD/svg10.dtd">
<svg version="1.0" xmlns="http://www.w3.org/2000/svg"
 width="256.000000pt" height="256.000000pt" viewBox="0 0 256.000000 256.000000"
 preserveAspectRatio="xMidYMid meet">
<metadata>
Created by potrace 1.14, written by Peter Selinger 2001-2017
</metadata>
<g transform="translate(0.000000,256.000000) scale(0.100000,-0.100000)"
fill="#FAFAFA" stroke="none">
<path d="M1255 2551 c-8 -8 -145 -87 -307 -179 -143 -82 -755 -436 -763 -442
-6 -6 -10 -233 -10 -646 l0 -638 200 -116 c688 -399 890 -515 902 -518 7 -2
174 90 370 203 197 114 445 257 551 318 l192 112 0 640 0 640 -237 138 c-131
76 -249 144 -263 152 -621 361 -613 357 -635 336z m205 -912 c33 -16 60 -35
60 -40 0 -11 -328 -668 -342 -686 -8 -9 -25 -5 -71 19 -34 16 -63 31 -65 33
-3 2 349 705 354 705 2 0 31 -14 64 -31z m-659 -96 c27 -26 49 -51 49 -54 0
-4 -43 -49 -95 -101 -52 -51 -95 -97 -95 -101 0 -5 43 -51 95 -104 52 -52 95
-97 95 -100 0 -3 -23 -28 -50 -56 l-50 -51 -155 154 -155 155 152 152 c84 84
155 153 157 153 2 0 26 -21 52 -47z m1169 -102 c83 -82 150 -152 150 -155 0
-3 -68 -74 -151 -157 l-151 -151 -54 53 -54 53 83 82 c45 45 90 91 100 101 17
19 15 23 -83 119 l-100 99 52 52 c29 29 54 53 55 53 2 0 71 -67 153 -149z"/>
</g>
</svg>
