<svg width="173" height="127" viewBox="0 0 173 127" fill="none" xmlns="http://www.w3.org/2000/svg">
<rect width="173" height="127" fill="white"/>
<path d="M47.948 37.224C47.3693 37.224 46.9213 37.0653 46.604 36.748C46.3053 36.412 46.156 35.9547 46.156 35.376V18.884C46.156 18.2867 46.3053 17.8293 46.604 17.512C46.9213 17.1947 47.3693 17.036 47.948 17.036C48.5267 17.036 48.9653 17.1947 49.264 17.512C49.5813 17.8293 49.74 18.2867 49.74 18.884V35.376C49.74 35.9547 49.5907 36.412 49.292 36.748C48.9933 37.0653 48.5453 37.224 47.948 37.224ZM60.8623 37.28C60.041 37.28 59.2197 37.2147 58.3983 37.084C57.577 36.972 56.8023 36.7947 56.0743 36.552C55.3463 36.2907 54.693 35.9733 54.1143 35.6C53.7783 35.376 53.545 35.1053 53.4143 34.788C53.2837 34.4707 53.237 34.1627 53.2743 33.864C53.3303 33.5467 53.4517 33.276 53.6383 33.052C53.8437 32.8093 54.0957 32.66 54.3943 32.604C54.693 32.548 55.0197 32.632 55.3743 32.856C56.1957 33.3413 57.0637 33.696 57.9783 33.92C58.893 34.144 59.8543 34.256 60.8623 34.256C62.337 34.256 63.4103 34.0133 64.0823 33.528C64.7543 33.024 65.0903 32.38 65.0903 31.596C65.0903 30.9427 64.8477 30.4293 64.3623 30.056C63.8957 29.6827 63.0837 29.3747 61.9263 29.132L58.8463 28.488C57.073 28.1147 55.7477 27.4893 54.8703 26.612C54.0117 25.716 53.5823 24.54 53.5823 23.084C53.5823 22.1693 53.769 21.3387 54.1423 20.592C54.5157 19.8453 55.0383 19.2013 55.7103 18.66C56.401 18.1187 57.213 17.708 58.1463 17.428C59.0983 17.1293 60.1437 16.98 61.2823 16.98C62.4023 16.98 63.4663 17.12 64.4743 17.4C65.4823 17.68 66.3877 18.0907 67.1903 18.632C67.489 18.8373 67.685 19.0893 67.7783 19.388C67.8903 19.6867 67.9183 19.9853 67.8623 20.284C67.8063 20.564 67.6757 20.8067 67.4703 21.012C67.265 21.2173 67.0037 21.3387 66.6863 21.376C66.3877 21.4133 66.0423 21.32 65.6503 21.096C64.9597 20.704 64.2597 20.424 63.5503 20.256C62.841 20.088 62.0757 20.004 61.2543 20.004C60.3957 20.004 59.6583 20.1253 59.0423 20.368C58.4263 20.6107 57.9503 20.956 57.6143 21.404C57.297 21.8333 57.1383 22.3467 57.1383 22.944C57.1383 23.616 57.3623 24.1573 57.8103 24.568C58.2583 24.96 59.0237 25.268 60.1063 25.492L63.1583 26.136C65.0063 26.528 66.3783 27.144 67.2743 27.984C68.189 28.824 68.6463 29.944 68.6463 31.344C68.6463 32.24 68.4597 33.052 68.0863 33.78C67.7317 34.508 67.209 35.1333 66.5183 35.656C65.8463 36.1787 65.0343 36.58 64.0823 36.86C63.1303 37.14 62.057 37.28 60.8623 37.28ZM61.0023 15.888C60.5917 15.888 60.209 15.804 59.8543 15.636C59.5183 15.4493 59.2197 15.1693 58.9583 14.796L56.9143 11.94C56.7277 11.6787 56.6623 11.4267 56.7183 11.184C56.793 10.9413 56.9423 10.7547 57.1663 10.624C57.3903 10.4747 57.633 10.4187 57.8943 10.456C58.1743 10.4747 58.4263 10.6147 58.6503 10.876L61.0023 13.62L63.3823 10.876C63.6063 10.6147 63.849 10.4747 64.1103 10.456C64.3903 10.4187 64.633 10.4747 64.8383 10.624C65.0623 10.7547 65.2023 10.9413 65.2583 11.184C65.333 11.408 65.277 11.66 65.0903 11.94L63.0743 14.796C62.813 15.1693 62.505 15.4493 62.1503 15.636C61.8143 15.804 61.4317 15.888 61.0023 15.888ZM77.8643 37.224C77.2856 37.224 76.8376 37.0653 76.5203 36.748C76.2216 36.412 76.0723 35.9547 76.0723 35.376V20.256H70.6123C70.1269 20.256 69.7443 20.1253 69.4643 19.864C69.2029 19.584 69.0722 19.2107 69.0722 18.744C69.0722 18.2587 69.2029 17.8947 69.4643 17.652C69.7443 17.3907 70.1269 17.26 70.6123 17.26H85.1163C85.6016 17.26 85.9749 17.3907 86.2363 17.652C86.5163 17.8947 86.6562 18.2587 86.6562 18.744C86.6562 19.2107 86.5163 19.584 86.2363 19.864C85.9749 20.1253 85.6016 20.256 85.1163 20.256H79.6563V35.376C79.6563 35.9547 79.5069 36.412 79.2083 36.748C78.9096 37.0653 78.4616 37.224 77.8643 37.224ZM90.6069 37C89.9909 37 89.5149 36.8413 89.1789 36.524C88.8615 36.188 88.7029 35.712 88.7029 35.096V19.164C88.7029 18.548 88.8615 18.0813 89.1789 17.764C89.5149 17.428 89.9909 17.26 90.6069 17.26H100.603C101.07 17.26 101.424 17.3813 101.667 17.624C101.928 17.8667 102.059 18.212 102.059 18.66C102.059 19.1267 101.928 19.4907 101.667 19.752C101.424 19.9947 101.07 20.116 100.603 20.116H92.1469V25.548H99.9869C100.472 25.548 100.836 25.6693 101.079 25.912C101.322 26.1547 101.443 26.5093 101.443 26.976C101.443 27.4427 101.322 27.7973 101.079 28.04C100.836 28.2827 100.472 28.404 99.9869 28.404H92.1469V34.144H100.603C101.07 34.144 101.424 34.2653 101.667 34.508C101.928 34.7507 102.059 35.1053 102.059 35.572C102.059 36.0387 101.928 36.3933 101.667 36.636C101.424 36.8787 101.07 37 100.603 37H90.6069ZM95.7309 15.888C95.3202 15.888 94.9375 15.804 94.5829 15.636C94.2469 15.4493 93.9482 15.1693 93.6869 14.796L91.6429 11.94C91.4562 11.6787 91.3909 11.4267 91.4469 11.184C91.5215 10.9413 91.6709 10.7547 91.8949 10.624C92.1189 10.4747 92.3615 10.4187 92.6229 10.456C92.9029 10.4747 93.1549 10.6147 93.3789 10.876L95.7309 13.62L98.1109 10.876C98.3349 10.6147 98.5775 10.4747 98.8389 10.456C99.1189 10.4187 99.3615 10.4747 99.5669 10.624C99.7909 10.7547 99.9309 10.9413 99.9869 11.184C100.062 11.408 100.006 11.66 99.8189 11.94L97.8029 14.796C97.5415 15.1693 97.2335 15.4493 96.8789 15.636C96.5429 15.804 96.1602 15.888 95.7309 15.888ZM107.09 37.224C106.549 37.224 106.129 37.0747 105.83 36.776C105.55 36.4773 105.41 36.048 105.41 35.488V18.828C105.41 18.2493 105.55 17.8107 105.83 17.512C106.129 17.1947 106.511 17.036 106.978 17.036C107.407 17.036 107.725 17.12 107.93 17.288C108.154 17.4373 108.415 17.6987 108.714 18.072L119.438 31.988H118.71V18.744C118.71 18.2027 118.85 17.7827 119.13 17.484C119.429 17.1853 119.849 17.036 120.39 17.036C120.931 17.036 121.342 17.1853 121.622 17.484C121.902 17.7827 122.042 18.2027 122.042 18.744V35.544C122.042 36.0667 121.911 36.4773 121.65 36.776C121.389 37.0747 121.034 37.224 120.586 37.224C120.157 37.224 119.811 37.14 119.55 36.972C119.307 36.804 119.037 36.5333 118.738 36.16L108.042 22.244H108.742V35.488C108.742 36.048 108.602 36.4773 108.322 36.776C108.042 37.0747 107.631 37.224 107.09 37.224ZM128.147 37.224C127.569 37.224 127.121 37.0653 126.803 36.748C126.505 36.412 126.355 35.9547 126.355 35.376V18.884C126.355 18.2867 126.505 17.8293 126.803 17.512C127.121 17.1947 127.569 17.036 128.147 17.036C128.726 17.036 129.165 17.1947 129.463 17.512C129.781 17.8293 129.939 18.2867 129.939 18.884V35.376C129.939 35.9547 129.79 36.412 129.491 36.748C129.193 37.0653 128.745 37.224 128.147 37.224ZM129.575 15.412C129.351 15.6547 129.099 15.7853 128.819 15.804C128.558 15.804 128.315 15.7293 128.091 15.58C127.886 15.412 127.746 15.2067 127.671 14.964C127.615 14.7213 127.671 14.4693 127.839 14.208L130.023 10.988C130.229 10.6707 130.471 10.484 130.751 10.428C131.05 10.3533 131.339 10.372 131.619 10.484C131.899 10.5773 132.123 10.736 132.291 10.96C132.478 11.1653 132.581 11.408 132.599 11.688C132.618 11.9493 132.506 12.2107 132.263 12.472L129.575 15.412Z" fill="black"/>
<rect x="6" y="7" width="36" height="36" rx="6" fill="#00B086"/>
<path d="M24.7516 37.3977C22.6983 37.3977 20.9343 36.987 19.4596 36.1657C18.0036 35.3257 16.8836 34.1497 16.0996 32.6377C15.3156 31.107 14.9236 29.3057 14.9236 27.2337C14.9236 25.6843 15.1476 24.2937 15.5956 23.0617C16.0436 21.811 16.6876 20.747 17.5276 19.8697C18.3676 18.9737 19.3943 18.2923 20.6076 17.8257C21.8396 17.3403 23.221 17.0977 24.7516 17.0977C25.7783 17.0977 26.7863 17.2283 27.7756 17.4897C28.765 17.751 29.633 18.1243 30.3796 18.6097C30.7716 18.8523 31.033 19.151 31.1636 19.5057C31.2943 19.8417 31.3223 20.1777 31.2476 20.5137C31.173 20.831 31.0143 21.1017 30.7716 21.3257C30.5476 21.5497 30.2583 21.6803 29.9036 21.7177C29.5676 21.7363 29.1943 21.615 28.7836 21.3537C28.205 20.9803 27.5796 20.7097 26.9076 20.5417C26.2356 20.3737 25.5543 20.2897 24.8636 20.2897C23.5383 20.2897 22.4183 20.5603 21.5036 21.1017C20.589 21.643 19.8983 22.427 19.4316 23.4537C18.965 24.4803 18.7316 25.7403 18.7316 27.2337C18.7316 28.7083 18.965 29.9683 19.4316 31.0137C19.8983 32.059 20.589 32.8523 21.5036 33.3937C22.4183 33.935 23.5383 34.2057 24.8636 34.2057C25.573 34.2057 26.273 34.1217 26.9636 33.9537C27.6543 33.767 28.3076 33.487 28.9236 33.1137C29.3343 32.871 29.6983 32.7683 30.0156 32.8057C30.3516 32.8243 30.6316 32.9363 30.8556 33.1417C31.0796 33.347 31.229 33.6083 31.3036 33.9257C31.3783 34.2243 31.3596 34.5417 31.2476 34.8777C31.1356 35.195 30.9116 35.475 30.5756 35.7177C29.829 36.259 28.933 36.679 27.8876 36.9777C26.861 37.2577 25.8156 37.3977 24.7516 37.3977ZM24.3876 16.0057C23.977 16.0057 23.5943 15.9217 23.2396 15.7537C22.9036 15.567 22.605 15.287 22.3436 14.9137L20.2996 12.0577C20.113 11.7963 20.0476 11.5443 20.1036 11.3017C20.1783 11.059 20.3276 10.8723 20.5516 10.7417C20.7756 10.5923 21.0183 10.5363 21.2796 10.5737C21.5596 10.5923 21.8116 10.7323 22.0356 10.9937L24.3876 13.7377L26.7676 10.9937C26.9916 10.7323 27.2343 10.5923 27.4956 10.5737C27.7756 10.5363 28.0183 10.5923 28.2236 10.7417C28.4476 10.8723 28.5876 11.059 28.6436 11.3017C28.7183 11.5257 28.6623 11.7777 28.4756 12.0577L26.4596 14.9137C26.1983 15.287 25.8903 15.567 25.5356 15.7537C25.1996 15.9217 24.817 16.0057 24.3876 16.0057Z" fill="white"/>
<path d="M52.708 77.224C52.1293 77.224 51.6813 77.0653 51.364 76.748C51.0653 76.412 50.916 75.9547 50.916 75.376V60.256H45.456C44.9707 60.256 44.588 60.1253 44.308 59.864C44.0467 59.584 43.916 59.2107 43.916 58.744C43.916 58.2587 44.0467 57.8947 44.308 57.652C44.588 57.3907 44.9707 57.26 45.456 57.26H59.96C60.4453 57.26 60.8187 57.3907 61.08 57.652C61.36 57.8947 61.5 58.2587 61.5 58.744C61.5 59.2107 61.36 59.584 61.08 59.864C60.8187 60.1253 60.4453 60.256 59.96 60.256H54.5V75.376C54.5 75.9547 54.3507 76.412 54.052 76.748C53.7533 77.0653 53.3053 77.224 52.708 77.224ZM65.3386 77.224C64.76 77.224 64.312 77.0653 63.9946 76.748C63.696 76.412 63.5466 75.9547 63.5466 75.376V59.08C63.5466 58.4827 63.7053 58.0347 64.0226 57.736C64.34 57.4187 64.788 57.26 65.3666 57.26H72.1146C74.28 57.26 75.9506 57.7827 77.1266 58.828C78.3026 59.8547 78.8906 61.3013 78.8906 63.168C78.8906 64.3813 78.62 65.4267 78.0786 66.304C77.556 67.1813 76.7906 67.8533 75.7826 68.32C74.7746 68.7867 73.552 69.02 72.1146 69.02L72.3666 68.6H73.2906C74.056 68.6 74.7186 68.7867 75.2786 69.16C75.8573 69.5333 76.3613 70.1213 76.7906 70.924L78.8906 74.816C79.1146 75.208 79.2173 75.5907 79.1986 75.964C79.18 76.3373 79.04 76.6453 78.7786 76.888C78.5173 77.112 78.1346 77.224 77.6306 77.224C77.1266 77.224 76.716 77.1213 76.3986 76.916C76.0813 76.692 75.8013 76.356 75.5586 75.908L72.7306 70.7C72.3946 70.0653 71.9933 69.6453 71.5266 69.44C71.0786 69.216 70.5 69.104 69.7906 69.104H67.1306V75.376C67.1306 75.9547 66.9813 76.412 66.6826 76.748C66.384 77.0653 65.936 77.224 65.3386 77.224ZM67.1306 66.444H71.4986C72.7866 66.444 73.7573 66.1827 74.4106 65.66C75.0826 65.1187 75.4186 64.316 75.4186 63.252C75.4186 62.2067 75.0826 61.4227 74.4106 60.9C73.7573 60.3587 72.7866 60.088 71.4986 60.088H67.1306V66.444ZM71.1346 55.888C70.724 55.888 70.3413 55.804 69.9866 55.636C69.6506 55.4493 69.352 55.1693 69.0906 54.796L67.0466 51.94C66.86 51.6787 66.7946 51.4267 66.8506 51.184C66.9253 50.9413 67.0746 50.7547 67.2986 50.624C67.5226 50.4747 67.7653 50.4187 68.0266 50.456C68.3066 50.4747 68.5586 50.6147 68.7826 50.876L71.1346 53.62L73.5146 50.876C73.7386 50.6147 73.9813 50.4747 74.2426 50.456C74.5226 50.4187 74.7653 50.4747 74.9706 50.624C75.1946 50.7547 75.3346 50.9413 75.3906 51.184C75.4653 51.408 75.4093 51.66 75.2226 51.94L73.2066 54.796C72.9453 55.1693 72.6373 55.4493 72.2826 55.636C71.9466 55.804 71.564 55.888 71.1346 55.888ZM84.6459 77C84.0299 77 83.5539 76.8413 83.2179 76.524C82.9006 76.188 82.7419 75.712 82.7419 75.096V59.164C82.7419 58.548 82.9006 58.0813 83.2179 57.764C83.5539 57.428 84.0299 57.26 84.6459 57.26H94.6419C95.1086 57.26 95.4633 57.3813 95.7059 57.624C95.9673 57.8667 96.0979 58.212 96.0979 58.66C96.0979 59.1267 95.9673 59.4907 95.7059 59.752C95.4633 59.9947 95.1086 60.116 94.6419 60.116H86.1859V65.548H94.0259C94.5113 65.548 94.8753 65.6693 95.1179 65.912C95.3606 66.1547 95.4819 66.5093 95.4819 66.976C95.4819 67.4427 95.3606 67.7973 95.1179 68.04C94.8753 68.2827 94.5113 68.404 94.0259 68.404H86.1859V74.144H94.6419C95.1086 74.144 95.4633 74.2653 95.7059 74.508C95.9673 74.7507 96.0979 75.1053 96.0979 75.572C96.0979 76.0387 95.9673 76.3933 95.7059 76.636C95.4633 76.8787 95.1086 77 94.6419 77H84.6459ZM108.606 77.28C106.552 77.28 104.788 76.8693 103.314 76.048C101.858 75.208 100.738 74.032 99.9536 72.52C99.1696 70.9893 98.7776 69.188 98.7776 67.116C98.7776 65.5667 99.0016 64.176 99.4496 62.944C99.8976 61.6933 100.542 60.6293 101.382 59.752C102.222 58.856 103.248 58.1747 104.462 57.708C105.694 57.2227 107.075 56.98 108.606 56.98C109.632 56.98 110.64 57.1107 111.63 57.372C112.619 57.6333 113.487 58.0067 114.234 58.492C114.626 58.7347 114.887 59.0333 115.018 59.388C115.148 59.724 115.176 60.06 115.102 60.396C115.027 60.7133 114.868 60.984 114.626 61.208C114.402 61.432 114.112 61.5627 113.758 61.6C113.422 61.6187 113.048 61.4973 112.638 61.236C112.059 60.8627 111.434 60.592 110.762 60.424C110.09 60.256 109.408 60.172 108.718 60.172C107.392 60.172 106.272 60.4427 105.358 60.984C104.443 61.5253 103.752 62.3093 103.286 63.336C102.819 64.3627 102.586 65.6227 102.586 67.116C102.586 68.5907 102.819 69.8507 103.286 70.896C103.752 71.9413 104.443 72.7347 105.358 73.276C106.272 73.8173 107.392 74.088 108.718 74.088C109.427 74.088 110.127 74.004 110.818 73.836C111.508 73.6493 112.162 73.3693 112.778 72.996C113.188 72.7533 113.552 72.6507 113.87 72.688C114.206 72.7067 114.486 72.8187 114.71 73.024C114.934 73.2293 115.083 73.4907 115.158 73.808C115.232 74.1067 115.214 74.424 115.102 74.76C114.99 75.0773 114.766 75.3573 114.43 75.6C113.683 76.1413 112.787 76.5613 111.742 76.86C110.715 77.14 109.67 77.28 108.606 77.28ZM120.245 77.224C119.666 77.224 119.218 77.0653 118.901 76.748C118.602 76.412 118.453 75.9547 118.453 75.376V58.884C118.453 58.2867 118.602 57.8293 118.901 57.512C119.218 57.1947 119.666 57.036 120.245 57.036C120.824 57.036 121.262 57.1947 121.561 57.512C121.878 57.8293 122.037 58.2867 122.037 58.884V65.492H132.201V58.884C132.201 58.2867 132.35 57.8293 132.649 57.512C132.966 57.1947 133.414 57.036 133.993 57.036C134.572 57.036 135.01 57.1947 135.309 57.512C135.626 57.8293 135.785 58.2867 135.785 58.884V75.376C135.785 75.9547 135.626 76.412 135.309 76.748C135.01 77.0653 134.572 77.224 133.993 77.224C133.414 77.224 132.966 77.0653 132.649 76.748C132.35 76.412 132.201 75.9547 132.201 75.376V68.488H122.037V75.376C122.037 75.9547 121.888 76.412 121.589 76.748C121.29 77.0653 120.842 77.224 120.245 77.224Z" fill="black"/>
<rect x="6" y="47" width="36" height="36" rx="6" fill="#00B086"/>
<path d="M24.96 76.28C24.1387 76.28 23.3173 76.2147 22.496 76.084C21.6747 75.972 20.9 75.7947 20.172 75.552C19.444 75.2907 18.7907 74.9733 18.212 74.6C17.876 74.376 17.6427 74.1053 17.512 73.788C17.3813 73.4707 17.3347 73.1627 17.372 72.864C17.428 72.5467 17.5493 72.276 17.736 72.052C17.9413 71.8093 18.1933 71.66 18.492 71.604C18.7907 71.548 19.1173 71.632 19.472 71.856C20.2933 72.3413 21.1613 72.696 22.076 72.92C22.9907 73.144 23.952 73.256 24.96 73.256C26.4347 73.256 27.508 73.0133 28.18 72.528C28.852 72.024 29.188 71.38 29.188 70.596C29.188 69.9427 28.9453 69.4293 28.46 69.056C27.9933 68.6827 27.1813 68.3747 26.024 68.132L22.944 67.488C21.1707 67.1147 19.8453 66.4893 18.968 65.612C18.1093 64.716 17.68 63.54 17.68 62.084C17.68 61.1693 17.8667 60.3387 18.24 59.592C18.6133 58.8453 19.136 58.2013 19.808 57.66C20.4987 57.1187 21.3107 56.708 22.244 56.428C23.196 56.1293 24.2413 55.98 25.38 55.98C26.5 55.98 27.564 56.12 28.572 56.4C29.58 56.68 30.4853 57.0907 31.288 57.632C31.5867 57.8373 31.7827 58.0893 31.876 58.388C31.988 58.6867 32.016 58.9853 31.96 59.284C31.904 59.564 31.7733 59.8067 31.568 60.012C31.3627 60.2173 31.1013 60.3387 30.784 60.376C30.4853 60.4133 30.14 60.32 29.748 60.096C29.0573 59.704 28.3573 59.424 27.648 59.256C26.9387 59.088 26.1733 59.004 25.352 59.004C24.4933 59.004 23.756 59.1253 23.14 59.368C22.524 59.6107 22.048 59.956 21.712 60.404C21.3947 60.8333 21.236 61.3467 21.236 61.944C21.236 62.616 21.46 63.1573 21.908 63.568C22.356 63.96 23.1213 64.268 24.204 64.492L27.256 65.136C29.104 65.528 30.476 66.144 31.372 66.984C32.2867 67.824 32.744 68.944 32.744 70.344C32.744 71.24 32.5573 72.052 32.184 72.78C31.8293 73.508 31.3067 74.1333 30.616 74.656C29.944 75.1787 29.132 75.58 28.18 75.86C27.228 76.14 26.1547 76.28 24.96 76.28Z" fill="white"/>
<path d="M47.976 117C47.3973 117 46.9493 116.841 46.632 116.524C46.3147 116.188 46.156 115.731 46.156 115.152V98.996C46.156 98.3987 46.3053 97.9507 46.604 97.652C46.9213 97.3347 47.3693 97.176 47.948 97.176C48.5267 97.176 48.9653 97.3347 49.264 97.652C49.5813 97.9507 49.74 98.3987 49.74 98.996V113.948H57.86C58.364 113.948 58.7467 114.079 59.008 114.34C59.288 114.601 59.428 114.975 59.428 115.46C59.428 115.945 59.288 116.328 59.008 116.608C58.7467 116.869 58.364 117 57.86 117H47.976ZM69.6603 117.28C67.7563 117.28 66.0856 116.86 64.6483 116.02C63.2296 115.18 62.1283 114.004 61.3443 112.492C60.5603 110.961 60.1683 109.169 60.1683 107.116C60.1683 105.567 60.3923 104.176 60.8403 102.944C61.2883 101.693 61.9229 100.629 62.7443 99.752C63.5843 98.856 64.5829 98.1747 65.7403 97.708C66.9163 97.2227 68.2229 96.98 69.6603 96.98C71.5829 96.98 73.2536 97.4 74.6723 98.24C76.0909 99.0613 77.1923 100.228 77.9763 101.74C78.7603 103.252 79.1523 105.035 79.1523 107.088C79.1523 108.637 78.9283 110.037 78.4803 111.288C78.0323 112.539 77.3883 113.612 76.5483 114.508C75.7269 115.404 74.7283 116.095 73.5523 116.58C72.3949 117.047 71.0976 117.28 69.6603 117.28ZM69.6603 114.2C70.8736 114.2 71.9003 113.92 72.7403 113.36C73.5989 112.8 74.2523 111.988 74.7003 110.924C75.1669 109.86 75.4003 108.591 75.4003 107.116C75.4003 104.876 74.8963 103.14 73.8883 101.908C72.8989 100.676 71.4896 100.06 69.6603 100.06C68.4656 100.06 67.4389 100.34 66.5803 100.9C65.7216 101.441 65.0589 102.244 64.5923 103.308C64.1443 104.353 63.9203 105.623 63.9203 107.116C63.9203 109.337 64.4243 111.073 65.4323 112.324C66.4403 113.575 67.8496 114.2 69.6603 114.2ZM84.4766 117.224C83.954 117.224 83.5526 117.075 83.2726 116.776C82.9926 116.477 82.8526 116.067 82.8526 115.544V98.716C82.8526 98.1747 83.002 97.764 83.3006 97.484C83.5993 97.1853 84.01 97.036 84.5326 97.036C84.9993 97.036 85.3633 97.1293 85.6246 97.316C85.9046 97.484 86.1566 97.7827 86.3806 98.212L93.2966 111.008H92.4006L99.3166 98.212C99.5406 97.7827 99.7833 97.484 100.045 97.316C100.306 97.1293 100.67 97.036 101.137 97.036C101.659 97.036 102.061 97.1853 102.341 97.484C102.621 97.764 102.761 98.1747 102.761 98.716V115.544C102.761 116.067 102.621 116.477 102.341 116.776C102.079 117.075 101.678 117.224 101.137 117.224C100.614 117.224 100.213 117.075 99.9326 116.776C99.6526 116.477 99.5126 116.067 99.5126 115.544V102.58H100.129L94.2486 113.304C94.062 113.621 93.866 113.855 93.6606 114.004C93.4553 114.153 93.1753 114.228 92.8206 114.228C92.466 114.228 92.1766 114.153 91.9526 114.004C91.7286 113.836 91.5326 113.603 91.3646 113.304L85.4286 102.552H86.1006V115.544C86.1006 116.067 85.9606 116.477 85.6806 116.776C85.4193 117.075 85.018 117.224 84.4766 117.224ZM115.953 117.28C114.049 117.28 112.379 116.86 110.941 116.02C109.523 115.18 108.421 114.004 107.637 112.492C106.853 110.961 106.461 109.169 106.461 107.116C106.461 105.567 106.685 104.176 107.133 102.944C107.581 101.693 108.216 100.629 109.037 99.752C109.877 98.856 110.876 98.1747 112.033 97.708C113.209 97.2227 114.516 96.98 115.953 96.98C117.876 96.98 119.547 97.4 120.965 98.24C122.384 99.0613 123.485 100.228 124.269 101.74C125.053 103.252 125.445 105.035 125.445 107.088C125.445 108.637 125.221 110.037 124.773 111.288C124.325 112.539 123.681 113.612 122.841 114.508C122.02 115.404 121.021 116.095 119.845 116.58C118.688 117.047 117.391 117.28 115.953 117.28ZM115.953 114.2C117.167 114.2 118.193 113.92 119.033 113.36C119.892 112.8 120.545 111.988 120.993 110.924C121.46 109.86 121.693 108.591 121.693 107.116C121.693 104.876 121.189 103.14 120.181 101.908C119.192 100.676 117.783 100.06 115.953 100.06C114.759 100.06 113.732 100.34 112.873 100.9C112.015 101.441 111.352 102.244 110.885 103.308C110.437 104.353 110.213 105.623 110.213 107.116C110.213 109.337 110.717 111.073 111.725 112.324C112.733 113.575 114.143 114.2 115.953 114.2ZM137.294 117.28C135.931 117.28 134.727 117.103 133.682 116.748C132.655 116.393 131.787 115.871 131.078 115.18C130.368 114.471 129.836 113.593 129.482 112.548C129.127 111.503 128.95 110.289 128.95 108.908V98.856C128.95 98.24 129.099 97.7827 129.398 97.484C129.715 97.1853 130.163 97.036 130.742 97.036C131.32 97.036 131.759 97.1853 132.058 97.484C132.375 97.7827 132.534 98.24 132.534 98.856V108.88C132.534 110.653 132.935 111.988 133.738 112.884C134.559 113.761 135.744 114.2 137.294 114.2C138.843 114.2 140.019 113.761 140.822 112.884C141.624 111.988 142.026 110.653 142.026 108.88V98.856C142.026 98.24 142.175 97.7827 142.474 97.484C142.791 97.1853 143.239 97.036 143.818 97.036C144.378 97.036 144.807 97.1853 145.106 97.484C145.423 97.7827 145.582 98.24 145.582 98.856V108.908C145.582 110.737 145.264 112.277 144.63 113.528C144.014 114.779 143.09 115.721 141.858 116.356C140.626 116.972 139.104 117.28 137.294 117.28ZM158.945 117.28C156.892 117.28 155.128 116.869 153.653 116.048C152.197 115.208 151.077 114.032 150.293 112.52C149.509 110.989 149.117 109.188 149.117 107.116C149.117 105.567 149.341 104.176 149.789 102.944C150.237 101.693 150.881 100.629 151.721 99.752C152.561 98.856 153.588 98.1747 154.801 97.708C156.033 97.2227 157.415 96.98 158.945 96.98C159.972 96.98 160.98 97.1107 161.969 97.372C162.959 97.6333 163.827 98.0067 164.573 98.492C164.965 98.7347 165.227 99.0333 165.357 99.388C165.488 99.724 165.516 100.06 165.441 100.396C165.367 100.713 165.208 100.984 164.965 101.208C164.741 101.432 164.452 101.563 164.097 101.6C163.761 101.619 163.388 101.497 162.977 101.236C162.399 100.863 161.773 100.592 161.101 100.424C160.429 100.256 159.748 100.172 159.057 100.172C157.732 100.172 156.612 100.443 155.697 100.984C154.783 101.525 154.092 102.309 153.625 103.336C153.159 104.363 152.925 105.623 152.925 107.116C152.925 108.591 153.159 109.851 153.625 110.896C154.092 111.941 154.783 112.735 155.697 113.276C156.612 113.817 157.732 114.088 159.057 114.088C159.767 114.088 160.467 114.004 161.157 113.836C161.848 113.649 162.501 113.369 163.117 112.996C163.528 112.753 163.892 112.651 164.209 112.688C164.545 112.707 164.825 112.819 165.049 113.024C165.273 113.229 165.423 113.491 165.497 113.808C165.572 114.107 165.553 114.424 165.441 114.76C165.329 115.077 165.105 115.357 164.769 115.6C164.023 116.141 163.127 116.561 162.081 116.86C161.055 117.14 160.009 117.28 158.945 117.28Z" fill="black"/>
<rect x="6" y="87" width="36" height="36" rx="6" fill="#00B086"/>
<path d="M25.004 116.28C23.1 116.28 21.4293 115.86 19.992 115.02C18.5733 114.18 17.472 113.004 16.688 111.492C15.904 109.961 15.512 108.169 15.512 106.116C15.512 104.567 15.736 103.176 16.184 101.944C16.632 100.693 17.2667 99.6293 18.088 98.752C18.928 97.856 19.9267 97.1747 21.084 96.708C22.26 96.2227 23.5667 95.98 25.004 95.98C26.9267 95.98 28.5973 96.4 30.016 97.24C31.4347 98.0613 32.536 99.228 33.32 100.74C34.104 102.252 34.496 104.035 34.496 106.088C34.496 107.637 34.272 109.037 33.824 110.288C33.376 111.539 32.732 112.612 31.892 113.508C31.0707 114.404 30.072 115.095 28.896 115.58C27.7387 116.047 26.4413 116.28 25.004 116.28ZM25.004 113.2C26.2173 113.2 27.244 112.92 28.084 112.36C28.9427 111.8 29.596 110.988 30.044 109.924C30.5107 108.86 30.744 107.591 30.744 106.116C30.744 103.876 30.24 102.14 29.232 100.908C28.2427 99.676 26.8333 99.06 25.004 99.06C23.8093 99.06 22.7827 99.34 21.924 99.9C21.0653 100.441 20.4027 101.244 19.936 102.308C19.488 103.353 19.264 104.623 19.264 106.116C19.264 108.337 19.768 110.073 20.776 111.324C21.784 112.575 23.1933 113.2 25.004 113.2Z" fill="white"/>
</svg>
