<svg xmlns="http://www.w3.org/2000/svg" width="114" height="94" viewBox="0 0 114 94">
  <g id="logo_wrap" transform="translate(-42 -57)">
    <rect id="Rectangle_1" data-name="Rectangle 1" width="114" height="94" transform="translate(42 57)" fill="#fff"/>
    <g id="logo_inner" transform="translate(7 -1)">
      <g id="Group_1" data-name="Group 1">
        <path id="Path_1" data-name="Path 1" d="M10.32-13.76a1.08,1.08,0,0,1,.86-.44,1.145,1.145,0,0,1,.82.35,1.119,1.119,0,0,1,.36.83,1.171,1.171,0,0,1-.3.76L7.52-6.72v5.54a1.257,1.257,0,0,1-.36.96,1.286,1.286,0,0,1-.92.34A1.313,1.313,0,0,1,5.3-.22a1.257,1.257,0,0,1-.36-.96V-6.72L.4-12.26a1.171,1.171,0,0,1-.3-.76,1.119,1.119,0,0,1,.36-.83,1.145,1.145,0,0,1,.82-.35,1.08,1.08,0,0,1,.86.44l4.1,5.08ZM6.54-15.28a.71.71,0,0,1-.32.08.617.617,0,0,1-.44-.17.523.523,0,0,1-.18-.39.634.634,0,0,1,.22-.44l1.82-1.88a1.16,1.16,0,0,1,.86-.4.942.942,0,0,1,.69.29.92.92,0,0,1,.29.67.853.853,0,0,1-.17.5,1.426,1.426,0,0,1-.51.42ZM18.42.18a10.1,10.1,0,0,1-2.91-.41,6.406,6.406,0,0,1-2.23-1.11,1.124,1.124,0,0,1-.46-.96,1.128,1.128,0,0,1,.25-.73.74.74,0,0,1,.59-.31,1.625,1.625,0,0,1,.82.28,6,6,0,0,0,1.8.9,7.268,7.268,0,0,0,2.08.28,4.1,4.1,0,0,0,2.24-.51,1.669,1.669,0,0,0,.78-1.49,1.281,1.281,0,0,0-.73-1.17,9.666,9.666,0,0,0-2.43-.79,14.394,14.394,0,0,1-2.86-.88A4.038,4.038,0,0,1,13.7-8a3.311,3.311,0,0,1-.56-1.98,3.726,3.726,0,0,1,.7-2.22,4.612,4.612,0,0,1,1.95-1.53,6.907,6.907,0,0,1,2.81-.55,6.975,6.975,0,0,1,4.66,1.52,1.5,1.5,0,0,1,.37.43,1.136,1.136,0,0,1,.11.53,1.128,1.128,0,0,1-.25.73.74.74,0,0,1-.59.31,1.1,1.1,0,0,1-.37-.06,2.965,2.965,0,0,1-.45-.22,6.758,6.758,0,0,0-1.59-.89,5.391,5.391,0,0,0-1.89-.29,3.707,3.707,0,0,0-2.15.55,1.761,1.761,0,0,0-.79,1.53,1.4,1.4,0,0,0,.7,1.26,8.2,8.2,0,0,0,2.38.82,16.014,16.014,0,0,1,2.89.89,4.286,4.286,0,0,1,1.7,1.25,3.005,3.005,0,0,1,.59,1.9,3.63,3.63,0,0,1-.69,2.19A4.5,4.5,0,0,1,21.29-.35,7.3,7.3,0,0,1,18.42.18Zm.02-15.38a1.491,1.491,0,0,1-.92-.36L15.86-17.1a.836.836,0,0,1-.3-.62.744.744,0,0,1,.22-.53.718.718,0,0,1,.54-.23.86.86,0,0,1,.62.28l1.5,1.54,1.5-1.54a.86.86,0,0,1,.62-.28.751.751,0,0,1,.55.23.728.728,0,0,1,.23.53.859.859,0,0,1-.32.62l-1.66,1.54A1.384,1.384,0,0,1,18.44-15.2ZM37.24-1.94a1.16,1.16,0,0,1,.4.86,1.112,1.112,0,0,1-.35.81,1.134,1.134,0,0,1-.83.35,1.28,1.28,0,0,1-.92-.42L28.88-6.58v5.4a1.291,1.291,0,0,1-.35.94,1.264,1.264,0,0,1-.95.36,1.238,1.238,0,0,1-.93-.36,1.291,1.291,0,0,1-.35-.94V-12.92a1.257,1.257,0,0,1,.35-.93,1.257,1.257,0,0,1,.93-.35,1.284,1.284,0,0,1,.95.35,1.257,1.257,0,0,1,.35.93v5.14l6.44-6.04a1.13,1.13,0,0,1,.82-.36,1.112,1.112,0,0,1,.81.35,1.112,1.112,0,0,1,.35.81,1.141,1.141,0,0,1-.4.84L31.52-7.26Zm8,2.12A6.966,6.966,0,0,1,41.67-.7a5.886,5.886,0,0,1-2.33-2.52,8.486,8.486,0,0,1-.82-3.84,8.51,8.51,0,0,1,.81-3.83,5.819,5.819,0,0,1,2.33-2.51,7.02,7.02,0,0,1,3.58-.88,6.966,6.966,0,0,1,3.57.88,5.836,5.836,0,0,1,2.32,2.51,8.51,8.51,0,0,1,.81,3.83,8.486,8.486,0,0,1-.82,3.84A5.886,5.886,0,0,1,48.79-.7,6.925,6.925,0,0,1,45.24.18Zm0-2.06a3.689,3.689,0,0,0,3.03-1.34,5.948,5.948,0,0,0,1.09-3.84,5.905,5.905,0,0,0-1.09-3.83,3.7,3.7,0,0,0-3.03-1.33,3.724,3.724,0,0,0-3.05,1.33A5.905,5.905,0,0,0,41.1-7.06a5.948,5.948,0,0,0,1.09,3.84A3.712,3.712,0,0,0,45.24-1.88Zm19.2-11.66a1.092,1.092,0,0,1,1.06-.68,1.4,1.4,0,0,1,.9.32.985.985,0,0,1,.4.8,1.291,1.291,0,0,1-.12.5L61.14-.68a1.308,1.308,0,0,1-.55.59,1.575,1.575,0,0,1-.79.21,1.575,1.575,0,0,1-.79-.21,1.308,1.308,0,0,1-.55-.59L52.94-12.6a1.259,1.259,0,0,1-.12-.48,1,1,0,0,1,.41-.82,1.472,1.472,0,0,1,.93-.32,1.224,1.224,0,0,1,.63.17,1.127,1.127,0,0,1,.45.51l4.6,10.22ZM69.7,0a1.252,1.252,0,0,1-.91-.32,1.2,1.2,0,0,1-.33-.9V-12.88a1.2,1.2,0,0,1,.33-.9,1.252,1.252,0,0,1,.91-.32h7.22a1.392,1.392,0,0,1,.9.26.9.9,0,0,1,.32.74.952.952,0,0,1-.32.77,1.356,1.356,0,0,1-.9.27H70.98v3.88h5.54a1.392,1.392,0,0,1,.9.26.922.922,0,0,1,.32.76.9.9,0,0,1-.32.74,1.392,1.392,0,0,1-.9.26H70.98v4.12h5.94a1.356,1.356,0,0,1,.9.27.952.952,0,0,1,.32.77.9.9,0,0,1-.32.74,1.392,1.392,0,0,1-.9.26Zm4.12-15.28a.71.71,0,0,1-.32.08.617.617,0,0,1-.44-.17.523.523,0,0,1-.18-.39.634.634,0,0,1,.22-.44l1.82-1.88a1.16,1.16,0,0,1,.86-.4.942.942,0,0,1,.69.29.92.92,0,0,1,.29.67.853.853,0,0,1-.17.5,1.426,1.426,0,0,1-.51.42Z" transform="translate(66 83)"/>
        <g id="Group_4" data-name="Group 4" transform="translate(19)">
          <rect id="Rectangle_2" data-name="Rectangle 2" width="25" height="25" rx="4" transform="translate(20 64)" fill="#ff1616"/>
          <path id="Path_2" data-name="Path 2" d="M11.78-13.54a1.092,1.092,0,0,1,1.06-.68,1.4,1.4,0,0,1,.9.32.985.985,0,0,1,.4.8,1.291,1.291,0,0,1-.12.5L8.48-.68a1.308,1.308,0,0,1-.55.59,1.575,1.575,0,0,1-.79.21,1.575,1.575,0,0,1-.79-.21A1.308,1.308,0,0,1,5.8-.68L.28-12.6a1.259,1.259,0,0,1-.12-.48,1,1,0,0,1,.41-.82,1.472,1.472,0,0,1,.93-.32,1.224,1.224,0,0,1,.63.17,1.127,1.127,0,0,1,.45.51L7.18-3.32Z" transform="translate(26 83)" fill="#fff"/>
        </g>
      </g>
      <g id="Group_5" data-name="Group 5" transform="translate(0 29)">
        <path id="Path_6" data-name="Path 6" d="M12.8-1.62a1.264,1.264,0,0,1,.24.7.937.937,0,0,1-.37.76,1.339,1.339,0,0,1-.87.3,1.31,1.31,0,0,1-.61-.15,1.312,1.312,0,0,1-.49-.45L8.04-4.5a2.591,2.591,0,0,0-.85-.9,2.322,2.322,0,0,0-1.17-.26H4.06v4.48a1.305,1.305,0,0,1-.34.95A1.223,1.223,0,0,1,2.8.12a1.257,1.257,0,0,1-.93-.35,1.284,1.284,0,0,1-.35-.95v-11.7a1.2,1.2,0,0,1,.33-.9,1.252,1.252,0,0,1,.91-.32h5a5.47,5.47,0,0,1,3.65,1.07,3.844,3.844,0,0,1,1.25,3.09,3.906,3.906,0,0,1-.93,2.69A4.4,4.4,0,0,1,9.1-5.9a2.522,2.522,0,0,1,1.02.5,4.4,4.4,0,0,1,.86,1ZM7.4-7.64a3.387,3.387,0,0,0,2.14-.55,2.045,2.045,0,0,0,.68-1.69,2.01,2.01,0,0,0-.68-1.69A3.483,3.483,0,0,0,7.4-12.1H4.04v4.46Zm20.64,6.1a1.232,1.232,0,0,1,.12.52.994.994,0,0,1-.37.78,1.262,1.262,0,0,1-.85.32,1.136,1.136,0,0,1-.6-.17,1.134,1.134,0,0,1-.44-.53L24.7-3.3H17.66L16.46-.62a1.134,1.134,0,0,1-.44.53,1.172,1.172,0,0,1-.62.17,1.274,1.274,0,0,1-.84-.32.984.984,0,0,1-.38-.78,1.232,1.232,0,0,1,.12-.52L19.82-13.4a1.29,1.29,0,0,1,.55-.61,1.575,1.575,0,0,1,.79-.21,1.575,1.575,0,0,1,.79.21,1.29,1.29,0,0,1,.55.61ZM23.82-5.3l-2.64-5.94L18.54-5.3Zm-2.34-9.98a.71.71,0,0,1-.32.08.617.617,0,0,1-.44-.17.523.523,0,0,1-.18-.39.634.634,0,0,1,.22-.44l1.82-1.88a1.16,1.16,0,0,1,.86-.4.942.942,0,0,1,.69.29.92.92,0,0,1,.29.67.853.853,0,0,1-.17.5,1.426,1.426,0,0,1-.51.42ZM35.96.18A7.034,7.034,0,0,1,32.39-.7a5.851,5.851,0,0,1-2.35-2.52,8.486,8.486,0,0,1-.82-3.84,8.423,8.423,0,0,1,.82-3.83,5.863,5.863,0,0,1,2.35-2.51,7.034,7.034,0,0,1,3.57-.88,7.732,7.732,0,0,1,2.48.39,6.444,6.444,0,0,1,2.06,1.13,1.147,1.147,0,0,1,.36.42,1.3,1.3,0,0,1,.1.54,1.147,1.147,0,0,1-.24.74.721.721,0,0,1-.58.3,1.479,1.479,0,0,1-.82-.28,5.931,5.931,0,0,0-1.6-.89,5.1,5.1,0,0,0-1.64-.25,3.844,3.844,0,0,0-3.15,1.3,5.89,5.89,0,0,0-1.07,3.82,5.926,5.926,0,0,0,1.07,3.84,3.844,3.844,0,0,0,3.15,1.3,4.707,4.707,0,0,0,1.59-.26,7.627,7.627,0,0,0,1.65-.88,2.8,2.8,0,0,1,.4-.2,1.12,1.12,0,0,1,.42-.08.721.721,0,0,1,.58.3,1.147,1.147,0,0,1,.24.74,1.319,1.319,0,0,1-.1.53,1.12,1.12,0,0,1-.36.43A6.444,6.444,0,0,1,38.44-.21,7.732,7.732,0,0,1,35.96.18ZM44.46,0a1.252,1.252,0,0,1-.91-.32,1.2,1.2,0,0,1-.33-.9V-12.88a1.2,1.2,0,0,1,.33-.9,1.252,1.252,0,0,1,.91-.32h7.22a1.392,1.392,0,0,1,.9.26.9.9,0,0,1,.32.74.952.952,0,0,1-.32.77,1.356,1.356,0,0,1-.9.27H45.74v3.88h5.54a1.392,1.392,0,0,1,.9.26.922.922,0,0,1,.32.76.9.9,0,0,1-.32.74,1.392,1.392,0,0,1-.9.26H45.74v4.12h5.94a1.356,1.356,0,0,1,.9.27A.952.952,0,0,1,52.9-1a.9.9,0,0,1-.32.74,1.392,1.392,0,0,1-.9.26Z" transform="translate(65 83)"/>
        <g id="Group_4-2" data-name="Group 4" transform="translate(19)">
          <rect id="Rectangle_2-2" data-name="Rectangle 2" width="25" height="25" rx="4" transform="translate(20 64)" fill="#ff1616"/>
          <path id="Path_5" data-name="Path 5" d="M2.8.12a1.257,1.257,0,0,1-.93-.35,1.284,1.284,0,0,1-.35-.95v-11.7a1.2,1.2,0,0,1,.33-.9,1.252,1.252,0,0,1,.91-.32H7.68a5.088,5.088,0,0,1,3.52,1.13A4.038,4.038,0,0,1,12.46-9.8,4.07,4.07,0,0,1,11.2-6.62,5.059,5.059,0,0,1,7.68-5.48H4.1v4.3a1.284,1.284,0,0,1-.35.95A1.284,1.284,0,0,1,2.8.12ZM7.36-7.46q2.66,0,2.66-2.32T7.36-12.1H4.1v4.64Z" transform="translate(26 83)" fill="#fff"/>
        </g>
      </g>
      <g id="Group_6" data-name="Group 6" transform="translate(0 58)">
        <path id="Path_4" data-name="Path 4" d="M7.8.18A6.966,6.966,0,0,1,4.23-.7,5.886,5.886,0,0,1,1.9-3.22a8.486,8.486,0,0,1-.82-3.84,8.51,8.51,0,0,1,.81-3.83A5.819,5.819,0,0,1,4.22-13.4a7.02,7.02,0,0,1,3.58-.88,6.966,6.966,0,0,1,3.57.88,5.836,5.836,0,0,1,2.32,2.51,8.51,8.51,0,0,1,.81,3.83,8.486,8.486,0,0,1-.82,3.84A5.886,5.886,0,0,1,11.35-.7,6.925,6.925,0,0,1,7.8.18Zm0-2.06a3.689,3.689,0,0,0,3.03-1.34,5.948,5.948,0,0,0,1.09-3.84,5.905,5.905,0,0,0-1.09-3.83A3.7,3.7,0,0,0,7.8-12.22a3.724,3.724,0,0,0-3.05,1.33A5.905,5.905,0,0,0,3.66-7.06,5.948,5.948,0,0,0,4.75-3.22,3.712,3.712,0,0,0,7.8-1.88Zm20.58.26a1.264,1.264,0,0,1,.24.7.937.937,0,0,1-.37.76,1.339,1.339,0,0,1-.87.3,1.31,1.31,0,0,1-.61-.15,1.312,1.312,0,0,1-.49-.45L23.62-4.5a2.591,2.591,0,0,0-.85-.9,2.322,2.322,0,0,0-1.17-.26H19.64v4.48a1.305,1.305,0,0,1-.34.95,1.223,1.223,0,0,1-.92.35,1.257,1.257,0,0,1-.93-.35,1.284,1.284,0,0,1-.35-.95v-11.7a1.2,1.2,0,0,1,.33-.9,1.252,1.252,0,0,1,.91-.32h5a5.47,5.47,0,0,1,3.65,1.07,3.844,3.844,0,0,1,1.25,3.09,3.906,3.906,0,0,1-.93,2.69A4.4,4.4,0,0,1,24.68-5.9a2.522,2.522,0,0,1,1.02.5,4.4,4.4,0,0,1,.86,1Zm-5.4-6.02a3.387,3.387,0,0,0,2.14-.55,2.045,2.045,0,0,0,.68-1.69,2.01,2.01,0,0,0-.68-1.69,3.483,3.483,0,0,0-2.14-.53H19.62v4.46Zm-.44-7.56a1.491,1.491,0,0,1-.92-.36L19.96-17.1a.836.836,0,0,1-.3-.62.744.744,0,0,1,.22-.53.718.718,0,0,1,.54-.23.86.86,0,0,1,.62.28l1.5,1.54,1.5-1.54a.86.86,0,0,1,.62-.28.751.751,0,0,1,.55.23.728.728,0,0,1,.23.53.859.859,0,0,1-.32.62l-1.66,1.54A1.384,1.384,0,0,1,22.54-15.2ZM35.22.1a1.284,1.284,0,0,1-.95-.35,1.257,1.257,0,0,1-.35-.93v-10.8H30.28q-1.2,0-1.2-1.06t1.2-1.06h9.86q1.2,0,1.2,1.06t-1.2,1.06H36.5v10.8a1.257,1.257,0,0,1-.35.93A1.257,1.257,0,0,1,35.22.1Z" transform="translate(65 83)"/>
        <g id="Group_4-3" data-name="Group 4" transform="translate(19)">
          <rect id="Rectangle_2-3" data-name="Rectangle 2" width="25" height="25" rx="4" transform="translate(20 64)" fill="#ff1616"/>
          <path id="Path_3" data-name="Path 3" d="M2.8.12a1.238,1.238,0,0,1-.93-.36,1.291,1.291,0,0,1-.35-.94v-11.7a1.2,1.2,0,0,1,.33-.9,1.252,1.252,0,0,1,.91-.32H9.78Q11-14.1,11-13.06q0,1.02-1.22,1.02H4.06V-8.2H9.38q1.22,0,1.22,1.04,0,1.02-1.22,1.02H4.06v4.96a1.313,1.313,0,0,1-.34.94A1.205,1.205,0,0,1,2.8.12Z" transform="translate(27 83)" fill="#fff"/>
        </g>
      </g>
    </g>
  </g>
</svg>
